<svg width="375" height="600" viewBox="0 0 375 600" fill="none" xmlns="http://www.w3.org/2000/svg">
<g clip-path="url(#clip0)">
<rect width="375" height="600" fill="#202024"/>
<mask id="mask0" style="mask-type:alpha" maskUnits="userSpaceOnUse" x="0" y="0" width="375" height="812">
<rect width="375" height="812" fill="#202024"/>
</mask>
<g mask="url(#mask0)">
<path d="M375 101.199V-322.993L187.478 -418.486L-0.0446777 -322.993V101.199L187.478 196.699L375 101.199Z" fill="url(#paint0_linear)"/>
<g style="mix-blend-mode:luminosity" opacity="0.4">
<path d="M1.83663 6.66171V101.816L95.1275 149.398L188.418 101.816V6.66171L95.1275 -40.9201L1.83663 6.66171Z" fill="url(#paint1_linear)"/>
<path d="M1.83663 -88.4977V6.65696L95.1275 54.2388L188.418 6.65696V-88.4977L95.1275 -136.08L1.83663 -88.4977Z" fill="url(#paint2_linear)"/>
<path d="M281.709 -136.055V-40.9003L188.418 6.68161L95.1274 -40.9003V-136.055L188.418 -183.637L281.709 -136.055Z" fill="url(#paint3_linear)"/>
<path d="M188.418 101.816V6.66138L281.709 -40.9205L375 6.66138V101.816L281.709 149.398L188.418 101.816Z" fill="url(#paint4_linear)"/>
<path d="M375 -88.4977V6.65696L281.709 54.2388L188.418 6.65696V-88.4977L281.709 -136.08L375 -88.4977Z" fill="url(#paint5_linear)"/>
<path d="M281.709 149.418V54.2635L188.418 6.68161L95.1274 54.2635L95.1274 149.418L188.418 197L281.709 149.418Z" fill="url(#paint6_linear)"/>
</g>
</g>
</g>
<defs>
<linearGradient id="paint0_linear" x1="-67.9497" y1="4.48706" x2="421.907" y2="194.714" gradientUnits="userSpaceOnUse">
<stop stop-color="#FF008E"/>
<stop offset="1" stop-color="#FFCD1E"/>
</linearGradient>
<linearGradient id="paint1_linear" x1="95.1275" y1="145.022" x2="17.9767" y2="-3.5874" gradientUnits="userSpaceOnUse">
<stop stop-color="#8257E5"/>
<stop offset="1" stop-color="#FF008E" stop-opacity="0"/>
</linearGradient>
<linearGradient id="paint2_linear" x1="95.1275" y1="49.8626" x2="17.9767" y2="-98.7467" gradientUnits="userSpaceOnUse">
<stop stop-color="#8257E5"/>
<stop offset="1" stop-color="#FF008E" stop-opacity="0"/>
</linearGradient>
<linearGradient id="paint3_linear" x1="95.1275" y1="-141.403" x2="268.722" y2="-23.1622" gradientUnits="userSpaceOnUse">
<stop stop-color="#FF008E" stop-opacity="0"/>
<stop offset="1" stop-color="#FFCD1E"/>
</linearGradient>
<linearGradient id="paint4_linear" x1="375" y1="107.164" x2="201.405" y2="-11.0767" gradientUnits="userSpaceOnUse">
<stop stop-color="#FF008E" stop-opacity="0"/>
<stop offset="1" stop-color="#FFCD1E"/>
</linearGradient>
<linearGradient id="paint5_linear" x1="281.709" y1="49.8626" x2="358.86" y2="-98.7467" gradientUnits="userSpaceOnUse">
<stop stop-color="#8257E5"/>
<stop offset="1" stop-color="#FF008E" stop-opacity="0"/>
</linearGradient>
<linearGradient id="paint6_linear" x1="188.418" y1="11.0579" x2="265.569" y2="159.667" gradientUnits="userSpaceOnUse">
<stop stop-color="#8257E5"/>
<stop offset="1" stop-color="#FF008E" stop-opacity="0"/>
</linearGradient>
<clipPath id="clip0">
<rect width="375" height="600" fill="white"/>
</clipPath>
</defs>
</svg>
